<?xml version="1.0" encoding="UTF-8" standalone="no"?>
<!-- Created with Inkscape (http://www.inkscape.org/) -->

<svg
   version="1.2"
   width="56.939545"
   height="96.595795"
   id="svg2"
   sodipodi:docname="Braille8dotCellNumbering_bigendian.svg"
   inkscape:version="1.2.1 (9c6d41e410, 2022-07-14)"
   xmlns:inkscape="http://www.inkscape.org/namespaces/inkscape"
   xmlns:sodipodi="http://sodipodi.sourceforge.net/DTD/sodipodi-0.dtd"
   xmlns="http://www.w3.org/2000/svg"
   xmlns:svg="http://www.w3.org/2000/svg"
   xmlns:rdf="http://www.w3.org/1999/02/22-rdf-syntax-ns#"
   xmlns:cc="http://creativecommons.org/ns#"
   xmlns:dc="http://purl.org/dc/elements/1.1/">
  <sodipodi:namedview
     id="namedview32"
     pagecolor="#ffffff"
     bordercolor="#cccccc"
     borderopacity="1"
     inkscape:showpageshadow="0"
     inkscape:pageopacity="1"
     inkscape:pagecheckerboard="0"
     inkscape:deskcolor="#d1d1d1"
     showgrid="false"
     inkscape:zoom="6.8078462"
     inkscape:cx="8.5195814"
     inkscape:cy="54.349054"
     inkscape:window-width="1910"
     inkscape:window-height="1052"
     inkscape:window-x="3840"
     inkscape:window-y="0"
     inkscape:window-maximized="1"
     inkscape:current-layer="g4306" />
  <metadata
     id="metadata3255">
    <rdf:RDF>
      <cc:Work
         rdf:about="">
        <dc:format>image/svg+xml</dc:format>
        <dc:type
           rdf:resource="http://purl.org/dc/dcmitype/StillImage" />
      </cc:Work>
    </rdf:RDF>
  </metadata>
  <defs
     id="defs3253" />
  <g
     id="g4306">
    <path
       d="m 0.1260215,0.10602149 56.6929015,0 0,96.37799751 -56.6929015,0 z"
       id="rect13"
       style="opacity:0;fill:#f2f2f2;stroke:#000000;stroke-width:0.23999999;stroke-linecap:round;stroke-linejoin:round" />
    <path
       d="m 50.499056,59.630221 c 0,4.372315 -3.515878,7.916778 -7.852933,7.916778 -4.337055,0 -7.852933,-3.544463 -7.852933,-7.916778 0,-4.372317 3.515878,-7.916779 7.852933,-7.916779 4.337055,0 7.852933,3.544462 7.852933,7.916779 z"
       id="path4075"
       style="fill:#ffffff;stroke:#000000;stroke-width:0.98481542;stroke-opacity:1;fill-opacity:0.54105633" />
    <path
       d="m 50.499056,36.953022 c 0,4.372315 -3.515878,7.916778 -7.852933,7.916778 -4.337055,0 -7.852933,-3.544463 -7.852933,-7.916778 0,-4.372317 3.515878,-7.916779 7.852933,-7.916779 4.337055,0 7.852933,3.544462 7.852933,7.916779 z"
       id="path4079"
       style="fill:#ffffff;stroke:#000000;stroke-width:0.98481542;stroke-opacity:1;fill-opacity:0.54105633" />
    <path
       d="m 50.499056,14.035922 c 0,4.372316 -3.515878,7.916779 -7.852933,7.916779 -4.337055,0 -7.852933,-3.544463 -7.852933,-7.916779 0,-4.3723162 3.515878,-7.9167785 7.852933,-7.9167785 4.337055,0 7.852933,3.5444623 7.852933,7.9167785 z"
       id="path4083"
       style="fill:#ffffff;stroke:#000000;stroke-width:0.98481542;stroke-opacity:1;fill-opacity:0.54105633" />
    <g
       transform="translate(28.57716,68.044937)"
       id="g4087"
       style="fill:#ffffff;fill-opacity:1">
      <path
         d="m -16.985301,17.11496 c 0,4.439731 -3.570088,8.038845 -7.974015,8.038845 -4.403927,0 -7.974015,-3.599114 -7.974015,-8.038845 0,-4.439732 3.570088,-8.0388453 7.974015,-8.0388453 4.403927,0 7.974015,3.5991133 7.974015,8.0388453 z"
         transform="matrix(0.98481542,0,0,0.98481542,38.649282,-2.592609)"
         id="path4085"
         style="fill:#ffffff;stroke:#000000;stroke-opacity:1;fill-opacity:1" />
    </g>
    <path
       d="m 22.392575,82.307405 c 0,4.372315 -3.515878,7.916778 -7.852933,7.916778 -4.337055,0 -7.8529332,-3.544463 -7.8529332,-7.916778 0,-4.372317 3.5158782,-7.916779 7.8529332,-7.916779 4.337055,0 7.852933,3.544462 7.852933,7.916779 z"
       id="path4073"
       style="fill:#ffffff;stroke:#000000;stroke-width:0.98481542;stroke-opacity:1;fill-opacity:0.54105633" />
    <path
       d="m 42.274053,14.490024 h -0.925782 v -1.523438 h 0.925782 c 0.429684,6e-6 0.762692,-0.08496 0.999024,-0.254883 0.236324,-0.169916 0.354488,-0.409174 0.354492,-0.717773 -4e-6,-0.324213 -0.118168,-0.577141 -0.354492,-0.758789 -0.236332,-0.181633 -0.56934,-0.272453 -0.999024,-0.272461 -0.328127,8e-6 -0.679691,0.04102 -1.054687,0.123047 -0.375002,0.08204 -0.763673,0.201179 -1.166016,0.357422 V 9.8728364 C 40.455693,9.751751 40.852177,9.658977 41.242803,9.594516 c 0.390623,-0.06444 0.765623,-0.09667 1.125,-0.09668 0.921871,9e-6 1.640621,0.20118 2.156249,0.603516 0.515619,0.402352 0.773432,0.957039 0.773438,1.664062 -6e-6,0.519537 -0.148444,0.944342 -0.445313,1.274414 -0.29688,0.330084 -0.720707,0.545904 -1.271483,0.647461 0.624994,0.10938 1.101556,0.358403 1.429687,0.747071 0.328118,0.388674 0.492181,0.899416 0.492187,1.532226 -6e-6,0.847658 -0.27149,1.494141 -0.814453,1.939453 -0.542974,0.445313 -1.332035,0.667969 -2.367187,0.667969 -0.441409,0 -0.875978,-0.03711 -1.303711,-0.111328 -0.427735,-0.07422 -0.836916,-0.181641 -1.227539,-0.322266 v -1.605469 c 0.367187,0.183595 0.763671,0.323243 1.189454,0.418946 0.425777,0.09571 0.873044,0.143555 1.341796,0.143554 0.468747,1e-6 0.83984,-0.108396 1.113282,-0.325195 0.273433,-0.216795 0.410151,-0.508786 0.410156,-0.875976 -5e-6,-0.449216 -0.136723,-0.795896 -0.410156,-1.040039 -0.273442,-0.244138 -0.66016,-0.366208 -1.160157,-0.366211 z"
       id="path3017"
       style="font-weight:bold;font-family:'DejaVu Sans Mono';fill:#000000" />
    <path
       d="m 22.392575,59.630221 c 0,4.372315 -3.515878,7.916778 -7.852933,7.916778 -4.337055,0 -7.8529332,-3.544463 -7.8529332,-7.916778 0,-4.372317 3.5158782,-7.916779 7.8529332,-7.916779 4.337055,0 7.852933,3.544462 7.852933,7.916779 z"
       id="path4077"
       style="fill:#ffffff;stroke:#000000;stroke-width:0.98481542;stroke-opacity:1;fill-opacity:0.54105633" />
    <path
       d="m 41.737919,39.882709 h 3.685547 v 1.523437 h -5.554687 v -1.476562 l 0.9375,-0.996094 c 1.113278,-1.183591 1.789059,-1.912104 2.027343,-2.185547 0.292966,-0.335932 0.503902,-0.633783 0.632813,-0.893555 0.128901,-0.25976 0.193354,-0.516596 0.193359,-0.770507 -5e-6,-0.390619 -0.118169,-0.692377 -0.354492,-0.905274 -0.236332,-0.212882 -0.571292,-0.319329 -1.004883,-0.319336 -0.308598,7e-6 -0.655276,0.06153 -1.040039,0.18457 -0.384768,0.123055 -0.786135,0.301766 -1.204103,0.536133 v -1.611328 c 0.417967,-0.152335 0.827147,-0.268546 1.227539,-0.348633 0.400388,-0.08007 0.784177,-0.120108 1.151368,-0.120117 0.925777,9e-6 1.653315,0.215829 2.182616,0.647461 0.529291,0.431649 0.79394,1.020516 0.793946,1.766602 -6e-6,0.343755 -0.05762,0.666021 -0.172852,0.966797 -0.11524,0.300786 -0.313482,0.634771 -0.594726,1.001953 -0.207037,0.26563 -0.775396,0.863284 -1.705078,1.792968 -0.50391,0.503909 -0.9043,0.906253 -1.201172,1.207032 z"
       id="path3011"
       style="font-weight:bold;font-family:'DejaVu Sans Mono';fill:#000000" />
    <path
       d="m 22.392575,36.953024 c 0,4.372315 -3.515878,7.916778 -7.852933,7.916778 -4.337055,0 -7.8529332,-3.544463 -7.8529332,-7.916778 0,-4.372317 3.5158782,-7.916779 7.8529332,-7.916779 4.337055,0 7.852933,3.544462 7.852933,7.916779 z"
       id="path4081"
       style="fill:#ffffff;stroke:#000000;stroke-width:0.98481542;stroke-opacity:1;fill-opacity:0.54105633" />
    <path
       d="m 39.871709,62.480806 h 1.933594 v -5.677734 l -1.798828,0.445313 v -1.558594 l 1.810546,-0.433594 h 1.669922 v 7.224609 h 1.933594 v 1.523437 h -5.548828 z"
       id="path3005"
       style="font-weight:bold;font-family:'DejaVu Sans Mono';fill:#000000" />
    <g
       transform="translate(0.47067902,-0.22654524)"
       id="g4090"
       style="fill:#ffffff;fill-opacity:0.54105633">
      <path
         d="m -16.985301,17.11496 c 0,4.439731 -3.570088,8.038845 -7.974015,8.038845 -4.403927,0 -7.974015,-3.599114 -7.974015,-8.038845 0,-4.439732 3.570088,-8.0388453 7.974015,-8.0388453 4.403927,0 7.974015,3.5991133 7.974015,8.0388453 z"
         transform="matrix(0.98481542,0,0,0.98481542,38.649282,-2.592609)"
         id="path4092"
         style="fill:#ffffff;stroke:#000000;stroke-opacity:1;fill-opacity:0.54105633" />
    </g>
    <path
       d="m 11.774017,9.6618988 h 5.531249 v 1.2246092 l -2.964843,7.523438 h -1.763672 l 2.847656,-7.22461 h -3.65039 z"
       id="path3023"
       style="font-weight:bold;font-family:'DejaVu Sans Mono';fill:#000000" />
    <path
       d="m 14.636321,36.926654 c -0.375003,3e-6 -0.661136,0.135747 -0.858398,0.407226 -0.197269,0.271488 -0.295901,0.665042 -0.295899,1.180664 -2e-6,0.511722 0.09863,0.903323 0.295899,1.174805 0.197262,0.271487 0.483395,0.407229 0.858398,0.407227 0.374996,0 0.663082,-0.135742 0.864258,-0.407227 0.201167,-0.271482 0.301753,-0.663083 0.301758,-1.174805 -5e-6,-0.511715 -0.100591,-0.904293 -0.301758,-1.177734 -0.201176,-0.273432 -0.489262,-0.410151 -0.864258,-0.410156 z m 2.267578,-4.160156 v 1.570312 c -0.308599,-0.175773 -0.604497,-0.307609 -0.887695,-0.395508 -0.283208,-0.08788 -0.555669,-0.131829 -0.817383,-0.131836 -0.625004,7e-6 -1.100589,0.209969 -1.426758,0.629883 -0.326174,0.41993 -0.497073,1.040045 -0.512695,1.860352 0.183591,-0.253901 0.417966,-0.444331 0.703125,-0.571289 0.285153,-0.126948 0.62109,-0.190424 1.007812,-0.19043 0.789058,6e-6 1.398432,0.249029 1.828125,0.74707 0.429682,0.498051 0.644525,1.204105 0.644532,2.118164 -7e-6,0.98047 -0.241218,1.740235 -0.723633,2.279297 -0.482427,0.539063 -1.161138,0.808594 -2.036133,0.808594 -1.066409,0 -1.840822,-0.357422 -2.323242,-1.072266 -0.482423,-0.714843 -0.723634,-1.869137 -0.723633,-3.46289 -1e-6,-1.51562 0.294921,-2.65136 0.884766,-3.407227 0.589841,-0.755851 1.474606,-1.13378 2.654297,-1.133789 0.273432,9e-6 0.555659,0.02931 0.846679,0.08789 0.29101,0.0586 0.584955,0.146493 0.881836,0.263673 z"
       id="path3020"
       style="font-weight:bold;font-family:'DejaVu Sans Mono';fill:#000000" />
    <path
       d="m 12.046477,55.171238 h 4.751953 v 1.523438 h -3.351562 v 1.623047 c 0.140622,-0.05468 0.291013,-0.09472 0.451172,-0.120117 0.160153,-0.02538 0.330075,-0.03808 0.509765,-0.03809 0.867184,5e-6 1.570308,0.273443 2.109375,0.820312 0.539057,0.54688 0.808588,1.257816 0.808594,2.132813 -6e-6,0.917969 -0.291998,1.643555 -0.875976,2.176757 -0.58399,0.533204 -1.379887,0.799804 -2.387696,0.799804 -0.375003,0 -0.753908,-0.03125 -1.136718,-0.09375 -0.382815,-0.0625 -0.773439,-0.15625 -1.171875,-0.28125 v -1.558594 c 0.324217,0.160158 0.657225,0.280275 0.999023,0.360352 0.341795,0.08008 0.684568,0.120118 1.02832,0.120117 0.609372,1e-6 1.072262,-0.129881 1.388672,-0.389648 0.316402,-0.259764 0.474605,-0.637693 0.47461,-1.133789 -5e-6,-0.457028 -0.157232,-0.823239 -0.47168,-1.098633 -0.314457,-0.275387 -0.733402,-0.413083 -1.256836,-0.413086 -0.308597,3e-6 -0.618167,0.03809 -0.928711,0.114258 -0.310549,0.07618 -0.624025,0.190433 -0.94043,0.342773 z"
       id="path3014"
       style="font-weight:bold;font-family:'DejaVu Sans Mono';fill:#000000" />
    <g
       aria-label="0"
       id="text369"
       style="font-size:12px;line-height:1.25;font-family:'Noto Sans';-inkscape-font-specification:'Noto Sans'"
       transform="translate(0.28567073,-0.58002463)">
      <path
         d="m 45.294452,82.893429 q 0,1.38 -0.288,2.364 -0.288,0.984 -0.936,1.512 -0.648,0.528 -1.716,0.528 -1.512,0 -2.22,-1.164 -0.708,-1.176 -0.708,-3.24 0,-1.392 0.288,-2.376 0.288,-0.984 0.924,-1.512 0.648,-0.528 1.716,-0.528 1.5,0 2.22,1.164 0.72,1.164 0.72,3.252 z m -4.344,0 q 0,1.572 0.3,2.364 0.312,0.792 1.104,0.792 0.78,0 1.092,-0.78 0.324,-0.792 0.324,-2.376 0,-1.584 -0.324,-2.376 -0.312,-0.792 -1.092,-0.792 -0.792,0 -1.104,0.792 -0.3,0.792 -0.3,2.376 z"
         style="font-weight:600;-inkscape-font-specification:'Noto Sans Semi-Bold'"
         id="path421" />
    </g>
    <path
       d="m 14.964446,79.855256 -2.208984,3.457032 h 2.208984 z m -0.152344,-1.921875 h 1.810547 v 5.378907 h 0.960938 v 1.482421 h -0.960938 v 1.886718 h -1.658203 v -1.886718 h -3.46875 v -1.675781 z"
       id="path3008"
       style="font-weight:bold;font-family:'DejaVu Sans Mono';fill:#000000" />
  </g>
</svg>
